<?xml version="1.0" standalone="no"?>
<!DOCTYPE svg PUBLIC "-//W3C//DTD SVG 20010904//EN"
 "http://www.w3.org/TR/2001/REC-SVG-20010904/DTD/svg10.dtd">
<svg version="1.0" xmlns="http://www.w3.org/2000/svg"
 width="16.000000pt" height="16.000000pt" viewBox="0 0 16.000000 16.000000"
 preserveAspectRatio="xMidYMid meet">
<metadata>
Created by potrace 1.11, written by Peter Selinger 2001-2013
</metadata>
<g transform="translate(0.000000,16.000000) scale(0.013559,-0.013559)"
fill="#000000" stroke="none">
<path d="M295 855 c-8 -5 -30 -38 -49 -72 l-35 -63 37 0 c33 0 40 5 60 40 l23
40 74 0 74 0 37 -62 36 -63 -27 -50 c-44 -80 -47 -81 -122 -80 -66 1 -68 2
-91 35 -26 39 -38 47 -67 46 -27 -1 -22 -27 21 -93 l34 -53 105 0 105 0 29 45
c16 25 41 69 57 98 l27 54 -52 91 c-29 51 -56 92 -59 93 -42 7 -207 3 -217 -6z"/>
<path d="M106 685 c-12 -13 -39 -57 -61 -98 l-39 -75 28 -53 c16 -30 41 -72
55 -94 l27 -40 109 0 110 0 37 60 c20 33 37 65 37 71 1 7 -14 11 -34 10 -28
-1 -37 -6 -46 -28 -18 -45 -38 -55 -104 -53 -33 2 -65 3 -71 4 -5 0 -25 29
-44 64 l-33 63 34 59 35 60 76 3 76 3 23 -41 c20 -36 27 -40 60 -40 l37 0 -40
70 c-22 39 -43 71 -47 71 -3 1 -51 3 -105 4 -92 2 -101 1 -120 -20z"/>
<path d="M460 463 c-23 -8 -50 -45 -50 -69 0 -12 9 -33 20 -47 18 -22 28 -26
70 -25 28 1 55 7 61 15 15 17 38 17 45 -2 4 -8 13 -15 21 -15 11 0 13 7 9 24
-11 43 -45 116 -55 116 -5 0 -20 -29 -32 -64 -15 -42 -27 -62 -34 -56 -5 4
-21 10 -35 12 -19 2 -26 10 -28 31 -4 35 15 59 39 52 24 -8 26 20 3 29 -9 3
-16 6 -17 5 -1 0 -9 -3 -17 -6z m130 -78 c0 -8 -4 -15 -10 -15 -5 0 -7 7 -4
15 4 8 8 15 10 15 2 0 4 -7 4 -15z"/>
<path d="M659 439 c0 -16 -1 -45 -1 -64 0 -53 1 -55 17 -55 9 0 15 9 15 25 0
14 4 25 9 25 5 0 12 -11 15 -25 4 -16 13 -25 26 -25 17 0 18 3 8 30 -7 22 -7
34 2 45 26 31 -4 63 -66 70 -20 2 -24 -2 -25 -26z m57 -35 c-5 -13 -10 -14
-18 -6 -6 6 -8 18 -4 28 5 13 10 14 18 6 6 -6 8 -18 4 -28z"/>
<path d="M884 458 c-4 -6 -7 -37 -7 -67 2 -74 1 -71 18 -71 12 0 15 14 15 69
0 67 -10 95 -26 69z"/>
<path d="M1134 462 c-6 -4 -18 -18 -27 -32 l-17 -24 0 28 c0 21 -4 27 -17 24
-15 -3 -18 -14 -18 -68 0 -54 3 -65 18 -68 13 -3 17 4 17 30 l0 33 21 -32 c20
-32 49 -45 49 -22 0 6 -9 22 -20 36 l-20 26 20 33 c20 31 16 51 -6 36z"/>
<path d="M780 390 l0 -70 40 0 c29 0 40 4 40 15 0 9 -10 15 -26 15 -18 0 -25
5 -23 18 5 52 -2 92 -16 92 -12 0 -15 -14 -15 -70z"/>
<path d="M930 390 c0 -56 3 -70 15 -70 14 0 20 23 16 60 -1 8 14 -2 34 -22 20
-21 38 -38 41 -38 2 0 4 32 4 70 0 63 -2 70 -19 70 -15 0 -19 -5 -15 -24 6
-37 -10 -39 -35 -6 -12 17 -26 30 -31 30 -6 0 -10 -31 -10 -70z"/>
</g>
</svg>
